# xmcd CD database file
#
# Track frame offsets:
#	150
#	19672
#	32887
#
# Disc length: 657 seconds
#
# Revision: 0
# Processed by: cddbd v1.5.1PL2 Copyright (c) Steve Scherf et al.
# Submitted via: CDex 1.51
#
DISCID=1b028f03
DTITLE=Chantal Kreviazuk - Leaving On A Jet Plane [CDS)
DYEAR=1998
DGENRE=Pop
TTITLE0=Leaving On A Jet Plane
TTITLE1=Love Is All
TTITLE2=Dealer
EXTD=YEAR: 1998
EXTT0=
EXTT1=
EXTT2=
PLAYORDER=
